<?xml version="1.0" standalone="no"?><!DOCTYPE svg PUBLIC "-//W3C//DTD SVG 1.1//EN" "http://www.w3.org/Graphics/SVG/1.1/DTD/svg11.dtd"><svg t="1641369027152" class="icon" viewBox="0 0 1024 1024" version="1.1" xmlns="http://www.w3.org/2000/svg" p-id="7036" xmlns:xlink="http://www.w3.org/1999/xlink" width="64" height="64"><defs><style type="text/css"></style></defs><path d="M896.02 469.27h-45.41C831.35 314.92 709.09 192.66 554.74 173.4v-45.41c0-23.46-19.2-42.66-42.66-42.66-23.47 0-42.66 19.2-42.66 42.66v45.41C315.06 192.65 192.8 314.92 173.54 469.27h-45.41c-23.47 0-42.66 19.2-42.66 42.66 0 23.46 19.2 42.66 42.66 42.66h45.41C192.8 708.94 315.06 831.2 469.41 850.46v45.41c0 23.46 19.2 42.66 42.66 42.66 23.47 0 42.66-19.2 42.66-42.66v-45.41C709.08 831.2 831.34 708.94 850.6 554.59h45.41c23.47 0 42.66-19.2 42.66-42.66 0.01-23.47-19.19-42.66-42.65-42.66z m-131.84 0h-131.8C620.01 433.01 591 404 554.73 391.63V259.82c106.96 18.05 191.4 102.49 209.45 209.45z m-294.77 42.66c0-23.46 19.2-42.66 42.66-42.66 23.47 0 42.66 19.2 42.66 42.66 0 23.46-19.2 42.66-42.66 42.66-23.46 0-42.66-19.2-42.66-42.66z m0-252.11v131.81c-36.26 12.37-65.27 41.38-77.65 77.64h-131.8c18.06-106.96 102.5-191.4 209.45-209.45zM259.96 554.59h131.8c12.37 36.26 41.38 65.27 77.65 77.64v131.81c-106.95-18.06-191.39-102.5-209.45-209.45z m294.77 209.45V632.23c36.26-12.37 65.27-41.38 77.65-77.64h131.8c-18.05 106.95-102.49 191.39-209.45 209.45z" fill="#ffffff" p-id="7037"></path></svg>