<?xml version="1.0" standalone="no"?><!DOCTYPE svg PUBLIC "-//W3C//DTD SVG 1.1//EN" "http://www.w3.org/Graphics/SVG/1.1/DTD/svg11.dtd"><svg t="1639359433144" class="icon" viewBox="0 0 1024 1024" version="1.1" xmlns="http://www.w3.org/2000/svg" p-id="3676" xmlns:xlink="http://www.w3.org/1999/xlink" width="64" height="64"><defs><style type="text/css"></style></defs><path d="M754.578125 372.01220703C754.578125 240.95263672 643.22802734 134.65625 512 134.65625S269.421875 240.95263672 269.421875 372.18066406c0 52.22167969 22.23632813 99.38964844 50.87402344 139.81933594h-0.5053711c18.36181641 25.26855469 36.04980469 46.66259766 53.06396485 75.80566406 37.06054688 63.67675781 31.33300781 125.16357422 31.50146484 137.4609375v2.35839844h215.625v-2.35839844c0-14.99267578-6.06445313-73.78417969 30.99609375-137.4609375 17.01416016-29.14306641 34.70214844-50.53710938 53.06396484-75.80566406h-0.16845703c28.46923828-40.4296875 50.70556641-87.59765625 50.70556641-139.98779297z m-82.54394531 137.29248047c-1.01074219 1.34765625-1.85302734 2.52685547-2.86376953 3.87451172-13.64501953 18.36181641-27.79541016 37.39746094-41.60888672 60.81298828-29.14306641 50.03173828-34.36523438 97.53662109-35.0390625 126.51123047H565.90625V512l53.90625-107.8125h-27.96386719L538.953125 512v188.671875h-53.90625V512l-52.89550781-107.8125H404.1875l53.90625 107.8125v188.671875h-26.78466797c-0.84228516-28.97460938-6.56982422-76.98486328-35.20751953-126.34277344-7.58056641-12.97119141-15.32958984-25.26855469-23.07861328-35.37597656h0.33691406l-31.33300781-43.125c-26.61621094-36.38671875-45.65185547-79.34326172-45.65185547-123.984375 0-56.26464844 26.953125-109.16015625 66.70898438-148.91601563s92.65136719-61.82373047 148.91601562-61.82373046c56.26464844 0 109.16015625 22.06787109 148.91601563 61.82373047C700.671875 262.68359375 727.625 315.57910156 727.625 371.84375c0 44.64111328-19.03564453 87.42919922-45.65185547 123.81591797L672.03417969 509.3046875zM458.09375 862.390625h107.8125v26.953125H458.09375v-26.953125zM431.140625 808.484375h161.71875v26.953125H431.140625v-26.953125zM431.140625 754.578125h161.71875v26.953125H431.140625v-26.953125z" p-id="3677" fill="#f4ea2a"></path></svg>